HIERARCHY
ROOT joint_Root
{
	OFFSET 0.0 0.0 0.0
	CHANNELS 6 Xposition Yposition Zposition Zrotation Xrotation Yrotation 
	JOINT Hips
	{
		OFFSET 4.5925 91.4895 -427.239
		CHANNELS 6 Xposition Yposition Zposition Zrotation Xrotation Yrotation 
		JOINT Spine
		{
			OFFSET 15.7357 0.0 0.0
			CHANNELS 6 Xposition Yposition Zposition Zrotation Xrotation Yrotation 
			JOINT Chest
			{
				OFFSET 8.98455 -0.406207 0.0
				CHANNELS 6 Xposition Yposition Zposition Zrotation Xrotation Yrotation 
				JOINT Neck
				{
					OFFSET 16.3773 0.0 0.0
					CHANNELS 6 Xposition Yposition Zposition Zrotation Xrotation Yrotation 
					JOINT Head
					{
						OFFSET 6.45672 0.0 0.0
						CHANNELS 6 Xposition Yposition Zposition Zrotation Xrotation Yrotation 
						End Site
						{
							OFFSET 0.0 0.0 0.0
						}
					}
				}
				JOINT Shoulder_L
				{
					OFFSET 12.9942 -0.242716 4.98039
					CHANNELS 6 Xposition Yposition Zposition Zrotation Xrotation Yrotation 
					JOINT UpperArm_L
					{
						OFFSET 5.34809 0.0 0.0
						CHANNELS 6 Xposition Yposition Zposition Zrotation Xrotation Yrotation 
						JOINT LowerArm_L
						{
							OFFSET 24.3286 1.87007e-05 0.0
							CHANNELS 6 Xposition Yposition Zposition Zrotation Xrotation Yrotation 
							JOINT Hand_L
							{
								OFFSET 22.2916 0.0 0.0
								CHANNELS 6 Xposition Yposition Zposition Zrotation Xrotation Yrotation 
								End Site
								{
									OFFSET 0.0 0.0 0.0
								}
							}
						}
					}
				}
				JOINT Shoulder_R
				{
					OFFSET 12.9945 -0.242716 -4.98039
					CHANNELS 6 Xposition Yposition Zposition Zrotation Xrotation Yrotation 
					JOINT UpperArm_R
					{
						OFFSET -5.34813 0.0 0.0
						CHANNELS 6 Xposition Yposition Zposition Zrotation Xrotation Yrotation 
						JOINT LowerArm_R
						{
							OFFSET -24.3289 0.000322201 0.0
							CHANNELS 6 Xposition Yposition Zposition Zrotation Xrotation Yrotation 
							JOINT Hand_R
							{
								OFFSET -22.2915 -0.000108084 0.0
								CHANNELS 6 Xposition Yposition Zposition Zrotation Xrotation Yrotation 
								End Site
								{
									OFFSET 0.0 0.0 0.0
								}
							}
						}
					}
				}
			}
		}
		JOINT UpperLeg_L
		{
			OFFSET -2.19248 -6.46944 0.0
			CHANNELS 6 Xposition Yposition Zposition Zrotation Xrotation Yrotation 
			JOINT LowerLeg_L
			{
				OFFSET 39.0811 0.0 -1.23785e-05
				CHANNELS 6 Xposition Yposition Zposition Zrotation Xrotation Yrotation 
				JOINT Foot_L
				{
					OFFSET 40.9854 0.0 -1.26872e-05
					CHANNELS 6 Xposition Yposition Zposition Zrotation Xrotation Yrotation 
					JOINT Toes_L
					{
						OFFSET 11.7543 0.0 0.0
						CHANNELS 6 Xposition Yposition Zposition Zrotation Xrotation Yrotation 
						End Site
						{
							OFFSET 0.0 0.0 0.0
						}
					}
				}
			}
		}
		JOINT UpperLeg_R
		{
			OFFSET -2.19251 6.46944 0.0
			CHANNELS 6 Xposition Yposition Zposition Zrotation Xrotation Yrotation 
			JOINT LowerLeg_R
			{
				OFFSET -39.0811 -0.00228153 -0.0401928
				CHANNELS 6 Xposition Yposition Zposition Zrotation Xrotation Yrotation 
				JOINT Foot_R
				{
					OFFSET -40.9854 0.0 0.0
					CHANNELS 6 Xposition Yposition Zposition Zrotation Xrotation Yrotation 
					JOINT Toes_R
					{
						OFFSET -11.7543 0.0 0.0
						CHANNELS 6 Xposition Yposition Zposition Zrotation Xrotation Yrotation 
						End Site
						{
							OFFSET 0.0 0.0 0.0
						}
					}
				}
			}
		}
	}
}
MOTION
Frames:	6
Frame Time:	0.0333333
0.000000 0.000000 0.000000 0.000000 0.000000 -0.000000 -2.086870 90.905900 -7.315270 88.785500 -0.919970 7.379330 15.735700 0.000005 -0.000001 88.254700 75.562400 -88.678800 8.984550 -0.406207 -0.000000 21.094300 -0.906700 -0.682478 16.377300 -0.000001 -0.000001 16.275800 -2.343090 2.142190 6.456720 -0.000001 -0.000000 -13.315100 -2.472170 1.979420 12.994200 -0.242716 4.980390 -89.068000 -3.068130 -73.094500 5.348090 -0.000007 -0.000001 -78.063400 -12.438700 -82.328200 24.328600 0.000019 0.000005 44.422800 -10.926400 -100.946000 22.291600 -0.000001 0.000005 11.771900 4.975680 7.832360 12.994500 -0.242716 -4.980390 90.087000 -0.394746 -77.570400 -5.348130 -0.000001 -0.000004 -70.137100 -17.424400 -79.460200 -24.328900 0.000322 -0.000009 20.786600 -5.544950 -104.282000 -22.291500 -0.000108 -0.000004 24.819700 5.230570 1.940790 -2.192480 -6.469440 -0.000000 -175.069000 -10.696500 -9.716440 39.081100 -0.000007 -0.000012 -0.111196 0.176691 32.183400 40.985400 -0.000006 -0.000013 0.050872 5.569080 -65.063000 11.754300 -0.000000 0.000003 -0.000256 -0.002277 -16.662800 -2.192510 6.469440 -0.000001 178.702000 21.510300 171.911000 -39.081100 -0.002282 -0.040193 -0.156073 0.264476 31.073100 -40.985400 0.000008 0.000006 4.915410 12.872700 -66.183400 -11.754300 -0.000006 -0.000006 -0.001894 -0.027379 -17.686400
0.000000 0.000000 0.000000 0.000000 0.000000 -0.000000 -2.129550 90.903000 -7.373170 88.815200 -0.910451 7.364460 15.735700 0.000005 -0.000001 88.227700 75.548600 -88.655100 8.984550 -0.406207 -0.000000 21.121400 -0.921264 -0.686322 16.377300 -0.000001 -0.000001 16.349900 -2.321820 2.125630 6.456720 -0.000001 -0.000000 -13.295700 -2.471080 1.962970 12.994200 -0.242716 4.980390 -89.061900 -3.074670 -73.024000 5.348090 -0.000007 -0.000001 -78.148700 -12.494600 -82.385300 24.328600 0.000019 0.000005 44.417800 -10.986000 -101.006000 22.291600 -0.000001 0.000005 11.654800 4.972090 7.907400 12.994500 -0.242716 -4.980390 90.095500 -0.433316 -77.566800 -5.348130 -0.000001 -0.000004 -70.148800 -17.473700 -79.525500 -24.328900 0.000322 -0.000009 20.819700 -5.570400 -104.320000 -22.291500 -0.000108 -0.000004 24.906900 5.228140 2.003460 -2.192480 -6.469440 -0.000000 -175.081000 -10.682700 -9.775640 39.081100 -0.000007 -0.000012 -0.112020 0.178110 32.167500 40.985400 -0.000006 -0.000013 0.019235 5.556960 -64.999400 11.754300 -0.000000 0.000003 -0.000270 -0.002382 -16.666600 -2.192510 6.469440 -0.000001 178.730000 21.488000 171.832000 -39.081100 -0.002282 -0.040193 -0.155508 0.263212 31.104700 -40.985400 0.000008 0.000006 4.949070 12.841800 -66.168000 -11.754300 -0.000006 -0.000006 -0.001710 -0.025022 -17.590600
0.000000 0.000000 0.000000 0.000000 0.000000 -0.000000 -2.163680 90.900500 -7.438380 88.829500 -0.857443 7.351230 15.735700 0.000005 -0.000001 88.239800 75.532800 -88.658800 8.984550 -0.406207 -0.000000 21.153400 -0.915333 -0.670194 16.377300 -0.000001 -0.000001 16.344200 -2.335820 2.142230 6.456720 -0.000001 -0.000000 -13.321300 -2.473010 1.927750 12.994200 -0.242716 4.980390 -89.059100 -3.093910 -73.076000 5.348090 -0.000007 -0.000001 -78.224000 -12.609100 -82.441500 24.328600 0.000019 0.000005 44.295400 -11.057300 -101.121000 22.291600 -0.000001 0.000005 11.834700 4.975750 7.830970 12.994500 -0.242716 -4.980390 90.098200 -0.444055 -77.527900 -5.348130 -0.000001 -0.000004 -70.115000 -17.537100 -79.609800 -24.328900 0.000322 -0.000009 20.801400 -5.570210 -104.333000 -22.291500 -0.000108 -0.000004 24.966800 5.230620 1.939550 -2.192480 -6.469440 -0.000000 -175.090000 -10.631400 -9.838880 39.081100 -0.000007 -0.000012 -0.112322 0.178637 32.160700 40.985400 -0.000006 -0.000013 -0.002031 5.556340 -64.944200 11.754300 -0.000000 0.000003 -0.000256 -0.002277 -16.662800 -2.192510 6.469440 -0.000001 178.758000 21.528900 171.759000 -39.081100 -0.002282 -0.040193 -0.155604 0.263160 31.124900 -40.985400 0.000008 0.000006 4.975520 12.812900 -66.140800 -11.754300 -0.000006 -0.000006 -0.001948 -0.028064 -17.714300
0.000000 0.000000 0.000000 0.000000 0.000000 -0.000000 -2.196260 90.907300 -7.509710 88.859000 -0.819939 7.300890 15.735700 0.000005 -0.000001 88.251600 75.537300 -88.669400 8.984550 -0.406207 -0.000000 21.144400 -0.909095 -0.669099 16.377300 -0.000001 -0.000001 16.358900 -2.341930 2.095000 6.456720 -0.000001 -0.000000 -13.356100 -2.499340 1.998450 12.994200 -0.242716 4.980390 -89.053300 -3.110370 -73.061100 5.348090 -0.000007 -0.000001 -78.281000 -12.607300 -82.507600 24.328600 0.000019 0.000005 44.175900 -11.075800 -101.184000 22.291600 -0.000001 0.000005 12.023500 4.980060 7.740760 12.994500 -0.242716 -4.980390 90.094600 -0.426163 -77.489100 -5.348130 -0.000001 -0.000004 -70.066000 -17.565000 -79.718200 -24.328900 0.000322 -0.000009 20.725600 -5.517980 -104.259000 -22.291500 -0.000108 -0.000004 24.959700 5.233120 1.874600 -2.192480 -6.469440 -0.000000 -175.117000 -10.645700 -9.922600 39.081100 -0.000007 -0.000012 -0.108539 0.173060 32.095100 40.985400 -0.000006 -0.000013 -0.006955 5.627500 -64.846300 11.754300 -0.000000 0.000003 -0.000250 -0.002230 -16.661100 -2.192510 6.469440 -0.000001 178.792000 21.559500 171.663000 -39.081100 -0.002282 -0.040193 -0.153308 0.259567 31.104400 -40.985400 0.000008 0.000006 5.003540 12.795000 -66.092800 -11.754300 -0.000006 -0.000006 -0.001799 -0.026169 -17.637200
0.000000 0.000000 0.000000 0.000000 0.000000 -0.000000 -2.229420 90.913300 -7.571690 88.860900 -0.780134 7.242220 15.735700 0.000005 -0.000001 88.267000 75.543800 -88.677800 8.984550 -0.406207 -0.000000 21.131700 -0.900321 -0.656850 16.377300 -0.000001 -0.000001 16.371800 -2.342770 2.106850 6.456720 -0.000001 -0.000000 -13.429300 -2.489040 2.029620 12.994200 -0.242716 4.980390 -89.043000 -3.134180 -73.010400 5.348090 -0.000007 -0.000001 -78.312700 -12.518500 -82.598000 24.328600 0.000019 0.000005 44.126800 -11.056500 -101.184000 22.291600 -0.000001 0.000005 12.106000 4.976700 7.810990 12.994500 -0.242716 -4.980390 90.095600 -0.429952 -77.468700 -5.348130 -0.000001 -0.000004 -70.000100 -17.577900 -79.772300 -24.328900 0.000322 -0.000009 20.871100 -5.520810 -104.162000 -22.291500 -0.000108 -0.000004 24.974300 5.229720 1.962590 -2.192480 -6.469440 -0.000000 -175.118000 -10.628000 -10.014000 39.081100 -0.000007 -0.000012 -0.110390 0.176312 32.051100 40.985400 -0.000006 -0.000013 -0.025682 5.639240 -64.770000 11.754300 -0.000000 0.000003 -0.000250 -0.002231 -16.661200 -2.192510 6.469440 -0.000001 178.843000 21.622100 171.568000 -39.081100 -0.002282 -0.040193 -0.155178 0.262998 31.072400 -40.985400 0.000008 0.000006 5.028110 12.797600 -66.039800 -11.754300 -0.000006 -0.000006 -0.001832 -0.026595 -17.654500
0.000000 0.000000 0.000000 0.000000 0.000000 -0.000000 -2.259140 90.925900 -7.626890 88.893300 -0.707083 7.220710 15.735700 0.000005 -0.000001 88.260400 75.541600 -88.664600 8.984550 -0.406207 -0.000000 21.136200 -0.902947 -0.642997 16.377300 -0.000001 -0.000001 16.360800 -2.303350 2.140470 6.456720 -0.000001 -0.000000 -13.509000 -2.443040 2.037450 12.994200 -0.242716 4.980390 -89.046200 -3.120870 -72.996500 5.348090 -0.000007 -0.000001 -78.267000 -12.470600 -82.643200 24.328600 0.000019 0.000005 44.070200 -11.043200 -101.193000 22.291600 -0.000001 0.000005 12.069900 4.979360 7.755340 12.994500 -0.242716 -4.980390 90.102300 -0.458490 -77.424300 -5.348130 -0.000001 -0.000004 -69.968300 -17.540200 -79.797900 -24.328900 0.000322 -0.000009 20.967700 -5.523320 -104.099000 -22.291500 -0.000108 -0.000004 24.997700 5.228830 1.985540 -2.192480 -6.469440 -0.000000 -175.145000 -10.603300 -10.040600 39.081100 -0.000007 -0.000012 -0.110061 0.176450 31.954200 40.985400 -0.000006 -0.000013 -0.035685 5.692820 -64.671000 11.754300 -0.000000 0.000003 -0.000243 -0.002179 -16.659300 -2.192510 6.469440 -0.000001 178.851000 21.671100 171.533000 -39.081100 -0.002282 -0.040193 -0.151941 0.258136 31.022500 -40.985400 0.000008 0.000006 5.049720 12.794800 -65.990200 -11.754300 -0.000006 -0.000006 -0.001822 -0.026469 -17.649400
